<svg width="22" height="19" viewBox="0 0 22 19" fill="none" xmlns="http://www.w3.org/2000/svg">
<path d="M18.4999 18.0713H3.49995C2.7884 18.0714 2.10381 17.7991 1.58661 17.3105C1.0694 16.8218 0.758804 16.1537 0.718519 15.4433L0.714233 15.2856V2.85704C0.714173 2.36836 0.89963 1.89788 1.23312 1.54068C1.56661 1.18348 2.02327 0.9662 2.51081 0.932753L2.6428 0.928467H15.9285C16.4172 0.928407 16.8877 1.11386 17.2449 1.44735C17.6021 1.78085 17.8194 2.2375 17.8528 2.72504L17.8571 2.85704V3.4999H19.3571C19.8458 3.49984 20.3163 3.68529 20.6735 4.01878C21.0306 4.35227 21.2479 4.80893 21.2814 5.29647L21.2857 5.42847V15.2856C21.2857 15.9972 21.0135 16.6817 20.5248 17.1989C20.0361 17.7162 19.3681 18.0268 18.6577 18.067L18.4999 18.0713ZM3.49995 16.7856H18.4999C18.8765 16.7856 19.2393 16.6439 19.5163 16.3887C19.7932 16.1335 19.964 15.7835 19.9948 15.4082L19.9999 15.2856V5.42847C19.9999 5.27312 19.9437 5.12303 19.8416 5.00595C19.7395 4.88888 19.5984 4.81274 19.4445 4.79161L19.3571 4.78561H17.8571V13.9999C17.8571 14.1552 17.8008 14.3053 17.6987 14.4224C17.5966 14.5395 17.4556 14.6156 17.3017 14.6368L17.2142 14.6428C17.0589 14.6427 16.9088 14.5865 16.7917 14.4844C16.6746 14.3823 16.5985 14.2412 16.5774 14.0873L16.5714 13.9999V2.85704C16.5714 2.70169 16.5151 2.5516 16.413 2.43453C16.3109 2.31745 16.1699 2.24131 16.0159 2.22018L15.9285 2.21418H2.6428C2.48746 2.21419 2.33737 2.27045 2.22029 2.37255C2.10322 2.47466 2.02707 2.61571 2.00595 2.76961L1.99995 2.85704V15.2856C1.99996 15.6621 2.14152 16.0247 2.39653 16.3017C2.65154 16.5786 3.00135 16.7495 3.37652 16.7805L3.49995 16.7856ZM7.78223 8.64618C8.37366 8.64618 8.85366 9.12618 8.85366 9.71761V12.7142C8.85366 13.3056 8.37366 13.7856 7.78223 13.7856H4.78566C4.19423 13.7856 3.71423 13.3056 3.71423 12.7142V9.71761C3.71423 9.12618 4.19423 8.64618 4.78566 8.64618H7.78223ZM11.2142 12.4999H14.2108C14.3737 12.4999 14.5305 12.5618 14.6495 12.673C14.7685 12.7842 14.8409 12.9364 14.852 13.0989C14.8631 13.2614 14.8121 13.4221 14.7093 13.5484C14.6065 13.6748 14.4596 13.7574 14.2982 13.7796L14.2108 13.7856H11.2142C11.0514 13.7856 10.8946 13.7237 10.7756 13.6125C10.6565 13.5013 10.5842 13.3491 10.5731 13.1866C10.562 13.0241 10.613 12.8634 10.7157 12.7371C10.8185 12.6107 10.9654 12.5281 11.1268 12.5059L11.2142 12.4999ZM7.5688 9.93189H4.99995V12.4999H7.5688V9.93189ZM11.2142 8.64618H14.2108C14.3737 8.64623 14.5305 8.7081 14.6495 8.8193C14.7685 8.9305 14.8409 9.08272 14.852 9.24522C14.8631 9.40772 14.8121 9.56837 14.7093 9.69472C14.6065 9.82107 14.4596 9.90369 14.2982 9.92589L14.2108 9.93189H11.2142C11.0502 9.93356 10.8917 9.87246 10.7713 9.76109C10.6508 9.64972 10.5775 9.49652 10.5663 9.33286C10.5552 9.16919 10.607 9.00745 10.7112 8.88075C10.8154 8.75404 10.9641 8.67197 11.1268 8.65132L11.2142 8.64618ZM4.35366 4.78304H14.2108C14.3737 4.78309 14.5305 4.84496 14.6495 4.95616C14.7685 5.06735 14.8409 5.21958 14.852 5.38208C14.8631 5.54458 14.8121 5.70523 14.7093 5.83158C14.6065 5.95793 14.4596 6.04055 14.2982 6.06275L14.2108 6.06875H4.35366C4.19086 6.06849 4.03422 6.00646 3.91537 5.8952C3.79652 5.78393 3.72431 5.63172 3.71332 5.46929C3.70233 5.30685 3.75338 5.1463 3.85616 5.02004C3.95895 4.89378 4.10581 4.81123 4.26709 4.78904L4.35366 4.78304Z" fill="white"/>
</svg>
